HIERARCHY
ROOT Hips
{
    OFFSET 0.000000 0.000000 0.000000
    CHANNELS 6 Xposition Yposition Zposition Zrotation Xrotation Yrotation
    JOINT Spine
    {
        OFFSET -0.000000 8.004412 0.000009
        CHANNELS 3 Zrotation Xrotation Yrotation
        JOINT Spine1
        {
            OFFSET 0.000000 23.696342 0.000001
            CHANNELS 3 Zrotation Xrotation Yrotation
            JOINT Neck
            {
                OFFSET 0.000000 26.650291 0.000006
                CHANNELS 3 Zrotation Xrotation Yrotation
                JOINT Head
                {
                    OFFSET 0.000001 16.351553 2.035163
                    CHANNELS 3 Zrotation Xrotation Yrotation
                    End Site
                    {
                        OFFSET 0.000000 20.351660 0.000000
                    }
                }
            }
            JOINT LeftShoulder
            {
                OFFSET 4.036570 20.304852 -0.371912
                CHANNELS 3 Zrotation Xrotation Yrotation
                JOINT LeftArm
                {
                    OFFSET 12.502549 0.000005 0.000011
                    CHANNELS 3 Zrotation Xrotation Yrotation
                    JOINT LeftForeArm
                    {
                        OFFSET 31.806908 0.000000 -0.000003
                        CHANNELS 3 Zrotation Xrotation Yrotation
                        JOINT LeftHand
                        {
                            OFFSET 24.843229 -0.000003 -0.000007
                            CHANNELS 3 Zrotation Xrotation Yrotation
                            JOINT LeftHandThumb1
                            {
                                OFFSET 2.126745 -2.416760 3.383457
                                CHANNELS 3 Zrotation Xrotation Yrotation
                                JOINT LeftHandThumb2
                                {
                                    OFFSET 3.212132 -0.000009 -0.000003
                                    CHANNELS 3 Zrotation Xrotation Yrotation
                                    JOINT LeftHandThumb3
                                    {
                                        OFFSET 2.745438 -0.000001 -0.000001
                                        CHANNELS 3 Zrotation Xrotation Yrotation
                                        End Site
                                        {
                                            OFFSET 2.793713 0.000000 0.000000
                                        }
                                    }
                                }
                            }
                            JOINT LeftHandIndex1
                            {
                                OFFSET 8.700326 -0.000001 3.383455
                                CHANNELS 3 Zrotation Xrotation Yrotation
                                JOINT LeftHandIndex2
                                {
                                    OFFSET 4.833514 -0.000002 -0.000005
                                    CHANNELS 3 Zrotation Xrotation Yrotation
                                    JOINT LeftHandIndex3
                                    {
                                        OFFSET 2.416759 0.000003 0.000009
                                        CHANNELS 3 Zrotation Xrotation Yrotation
                                        End Site
                                        {
                                            OFFSET 2.459254 0.000000 0.000000
                                        }
                                    }
                                }
                            }
                            JOINT LeftHandMiddle1
                            {
                                OFFSET 8.700338 -0.000002 1.121373
                                CHANNELS 3 Zrotation Xrotation Yrotation
                                JOINT LeftHandMiddle2
                                {
                                    OFFSET 5.316875 -0.000000 0.000005
                                    CHANNELS 3 Zrotation Xrotation Yrotation
                                    JOINT LeftHandMiddle3
                                    {
                                        OFFSET 2.900116 -0.000002 -0.000004
                                        CHANNELS 3 Zrotation Xrotation Yrotation
                                        End Site
                                        {
                                            OFFSET 2.951103 0.000000 0.000000
                                        }
                                    }
                                }
                            }
                            JOINT LeftHandRing1
                            {
                                OFFSET 8.216977 -0.000001 -1.121380
                                CHANNELS 3 Zrotation Xrotation Yrotation
                                JOINT LeftHandRing2
                                {
                                    OFFSET 4.833515 -0.000001 -0.000005
                                    CHANNELS 3 Zrotation Xrotation Yrotation
                                    JOINT LeftHandRing3
                                    {
                                        OFFSET 2.416759 0.000002 0.000009
                                        CHANNELS 3 Zrotation Xrotation Yrotation
                                        End Site
                                        {
                                            OFFSET 2.459254 0.000000 0.000000
                                        }
                                    }
                                }
                            }
                            JOINT LeftHandPinky1
                            {
                                OFFSET 7.733628 -0.000002 -3.383471
                                CHANNELS 3 Zrotation Xrotation Yrotation
                                JOINT LeftHandPinky2
                                {
                                    OFFSET 3.866809 0.000000 -0.000003
                                    CHANNELS 3 Zrotation Xrotation Yrotation
                                    JOINT LeftHandPinky3
                                    {
                                        OFFSET 1.933410 -0.000001 -0.000003
                                        CHANNELS 3 Zrotation Xrotation Yrotation
                                        End Site
                                        {
                                            OFFSET 1.967405 0.000000 0.000000
                                        }
                                    }
                                }
                            }
                        }
                    }
                }
            }
            JOINT RightShoulder
            {
                OFFSET -4.036570 20.304848 -0.371903
                CHANNELS 3 Zrotation Xrotation Yrotation
                JOINT RightArm
                {
                    OFFSET -12.502551 0.000005 0.000000
                    CHANNELS 3 Zrotation Xrotation Yrotation
                    JOINT RightForeArm
                    {
                        OFFSET -31.806919 0.000006 0.000007
                        CHANNELS 3 Zrotation Xrotation Yrotation
                        JOINT RightHand
                        {
                            OFFSET -24.843227 -0.000004 0.000000
                            CHANNELS 3 Zrotation Xrotation Yrotation
                            JOINT RightHandThumb1
                            {
                                OFFSET -2.126748 -2.416765 3.383460
                                CHANNELS 3 Zrotation Xrotation Yrotation
                                JOINT RightHandThumb2
                                {
                                    OFFSET -3.212141 0.000004 -0.000003
                                    CHANNELS 3 Zrotation Xrotation Yrotation
                                    JOINT RightHandThumb3
                                    {
                                        OFFSET -2.745443 0.000008 -0.000004
                                        CHANNELS 3 Zrotation Xrotation Yrotation
                                        End Site
                                        {
                                            OFFSET -2.793713 0.000000 0.000000
                                        }
                                    }
                                }
                            }
                            JOINT RightHandIndex1
                            {
                                OFFSET -8.700344 0.000012 3.383465
                                CHANNELS 3 Zrotation Xrotation Yrotation
                                JOINT RightHandIndex2
                                {
                                    OFFSET -4.833524 0.000007 -0.000000
                                    CHANNELS 3 Zrotation Xrotation Yrotation
                                    JOINT RightHandIndex3
                                    {
                                        OFFSET -2.416758 -0.000007 -0.000003
                                        CHANNELS 3 Zrotation Xrotation Yrotation
                                        End Site
                                        {
                                            OFFSET -2.459254 0.000000 0.000000
                                        }
                                    }
                                }
                            }
                            JOINT RightHandMiddle1
                            {
                                OFFSET -8.700332 0.000001 1.121375
                                CHANNELS 3 Zrotation Xrotation Yrotation
                                JOINT RightHandMiddle2
                                {
                                    OFFSET -5.316875 0.000007 0.000000
                                    CHANNELS 3 Zrotation Xrotation Yrotation
                                    JOINT RightHandMiddle3
                                    {
                                        OFFSET -2.900109 -0.000007 -0.000005
                                        CHANNELS 3 Zrotation Xrotation Yrotation
                                        End Site
                                        {
                                            OFFSET -2.951103 0.000000 0.000000
                                        }
                                    }
                                }
                            }
                            JOINT RightHandRing1
                            {
                                OFFSET -8.216982 0.000000 -1.121379
                                CHANNELS 3 Zrotation Xrotation Yrotation
                                JOINT RightHandRing2
                                {
                                    OFFSET -4.833524 0.000008 0.000001
                                    CHANNELS 3 Zrotation Xrotation Yrotation
                                    JOINT RightHandRing3
                                    {
                                        OFFSET -2.416758 -0.000007 -0.000004
                                        CHANNELS 3 Zrotation Xrotation Yrotation
                                        End Site
                                        {
                                            OFFSET -2.459254 0.000000 0.000000
                                        }
                                    }
                                }
                            }
                            JOINT RightHandPinky1
                            {
                                OFFSET -7.733635 0.000005 -3.383465
                                CHANNELS 3 Zrotation Xrotation Yrotation
                                JOINT RightHandPinky2
                                {
                                    OFFSET -3.866822 0.000009 0.000003
                                    CHANNELS 3 Zrotation Xrotation Yrotation
                                    JOINT RightHandPinky3
                                    {
                                        OFFSET -1.933402 -0.000004 -0.000002
                                        CHANNELS 3 Zrotation Xrotation Yrotation
                                        End Site
                                        {
                                            OFFSET -1.967405 0.000000 0.000000
                                        }
                                    }
                                }
                            }
                        }
                    }
                }
            }
        }
    }
    JOINT LeftUpLeg
    {
        OFFSET 10.175827 -0.000003 0.000004
        CHANNELS 3 Zrotation Xrotation Yrotation
        JOINT LeftLeg
        {
            OFFSET -0.000001 -42.882954 -0.000006
            CHANNELS 3 Zrotation Xrotation Yrotation
            JOINT LeftFoot
            {
                OFFSET -0.000002 -39.006771 -0.000009
                CHANNELS 3 Zrotation Xrotation Yrotation
                JOINT LeftToeBase
                {
                    OFFSET 0.000000 -6.614287 15.263732
                    CHANNELS 3 Zrotation Xrotation Yrotation
                    End Site
                    {
                        OFFSET 0.000000 0.000000 4.070332
                    }
                }
            }
        }
    }
    JOINT RightUpLeg
    {
        OFFSET -10.175826 0.000003 -0.000004
        CHANNELS 3 Zrotation Xrotation Yrotation
        JOINT RightLeg
        {
            OFFSET -0.000001 -42.882950 -0.000002
            CHANNELS 3 Zrotation Xrotation Yrotation
            JOINT RightFoot
            {
                OFFSET 0.000000 -39.006767 0.000006
                CHANNELS 3 Zrotation Xrotation Yrotation
                JOINT RightToeBase
                {
                    OFFSET 0.000003 -6.614288 15.263746
                    CHANNELS 3 Zrotation Xrotation Yrotation
                    End Site
                    {
                        OFFSET 0.000000 0.000000 4.070332
                    }
                }
            }
        }
    }
}
MOTION
Frames:    4
Frame Time:    0.002778
-16.605621    86.204056    218.526245    6.074046    -5.855675    -17.237469    0.441677    6.466097    0.538883    2.208371    6.461526    0.339981    4.641248    6.271973    2.594485    4.641242    6.271967    2.594491    -6.402963    -0.655162    0.576460    -51.545708    30.641420    -22.549562    -14.063744    6.266953    -138.743210    15.300766    5.704975    20.466070    47.448208    38.866432    -34.355022    -35.000000    -0.000001    -0.000002    -0.000000    0.000000    -0.000000    -0.000004    10.000001    0.000002    -0.000000    0.000000    -0.000000    -0.000000    0.000000    -0.000000    -0.000000    0.000000    -0.000000    -0.000000    0.000000    -0.000000    -0.000000    0.000000    -0.000000    -0.000000    0.000000    -0.000000    -0.000000    0.000000    -0.000000    -0.000000    0.000000    -0.000000    0.000007    -10.000005    0.000001    -0.000000    0.000000    -0.000000    -0.000000    0.000000    -0.000000    -0.460782    -6.254343    6.922787    42.552834    18.233343    29.126432    -28.508949    -22.444038    71.479736    -1.412548    1.728769    -44.803780    -47.448219    38.866440    34.355038    35.000004    -0.000004    -0.000004    -0.000000    0.000000    -0.000000    -0.000002    10.000001    -0.000003    -0.000000    0.000000    -0.000000    -0.000000    0.000000    -0.000000    -0.000000    0.000000    -0.000000    -0.000000    0.000000    -0.000000    -0.000000    0.000000    -0.000000    -0.000000    0.000000    -0.000000    -0.000000    0.000000    -0.000000    -0.000000    0.000000    -0.000000    -0.000006    -9.999998    -0.000002    -0.000000    0.000000    -0.000000    -0.000000    0.000000    -0.000000    7.715540    -6.576570    -4.878907    0.000003    46.136124    -0.000002    -17.989466    -33.817379    16.944273    -0.000000    -0.621439    0.000000    -17.417267    -27.268309    -1.465460    -0.000002    61.318035    0.000005    10.940551    -28.097557    -5.199517    -0.000000    -1.279563    0.000010    
-16.625360    86.282471    218.441589    6.161890    -5.747885    -16.967350    0.439570    6.436594    0.735378    2.197839    6.432086    0.538319    4.604698    6.157860    2.388778    4.604705    6.157864    2.388777    -6.422653    -0.718363    0.490548    -51.489471    30.602413    -22.629854    -14.058903    6.230622    -138.756927    15.302362    5.706466    20.467655    47.448208    38.866428    -34.355022    -34.999996    0.000000    -0.000001    -0.000000    0.000000    -0.000000    0.000003    9.999993    -0.000000    -0.000000    0.000000    -0.000000    -0.000000    0.000000    -0.000000    -0.000000    0.000000    -0.000000    -0.000000    0.000000    -0.000000    -0.000000    0.000000    -0.000000    -0.000000    0.000000    -0.000000    -0.000000    0.000000    -0.000000    -0.000000    0.000000    -0.000000    0.000005    -10.000003    0.000000    -0.000000    0.000000    -0.000000    -0.000000    0.000000    -0.000000    -0.501989    -6.258835    7.026007    41.923141    17.544512    29.968332    -28.202789    -22.306637    71.200951    -1.568232    1.872911    -44.734489    -47.448208    38.866428    34.355030    34.999989    -0.000001    -0.000001    -0.000000    0.000000    -0.000000    -0.000002    10.000003    -0.000001    -0.000000    0.000000    -0.000000    -0.000000    0.000000    -0.000000    -0.000000    0.000000    -0.000000    -0.000000    0.000000    -0.000000    -0.000000    0.000000    -0.000000    -0.000000    0.000000    -0.000000    -0.000000    0.000000    -0.000000    -0.000000    0.000000    -0.000000    -0.000001    -9.999999    -0.000002    -0.000000    0.000000    -0.000000    -0.000000    0.000000    -0.000000    7.730499    -6.719522    -4.909521    -0.000000    45.867733    0.000002    -18.010950    -33.562889    16.826639    0.000000    -0.608036    0.000001    -17.480862    -27.240452    -1.588292    -0.000002    61.125126    0.000005    10.934986    -28.026604    -5.370946    0.000000    -1.281031    -0.000002    
-16.643303    86.357628    218.364044    6.249006    -5.636299    -16.702255    0.437790    6.404944    0.935808    2.188940    6.400496    0.740513    4.564189    6.039183    2.180115    4.564189    6.039181    2.180118    -6.456170    -0.779281    0.414230    -51.441242    30.552938    -22.705437    -14.035474    6.208982    -138.761139    15.293311    5.710244    20.490271    47.448215    38.866428    -34.355030    -35.000000    -0.000001    -0.000002    -0.000000    0.000000    -0.000000    0.000000    9.999994    -0.000002    -0.000000    0.000000    -0.000000    -0.000000    0.000000    -0.000000    -0.000000    0.000000    -0.000000    -0.000000    0.000000    -0.000000    -0.000000    0.000000    -0.000000    -0.000000    0.000000    -0.000000    -0.000000    0.000000    -0.000000    -0.000000    0.000000    -0.000000    0.000004    -10.000010    0.000007    -0.000000    0.000000    -0.000000    -0.000000    0.000000    -0.000000    -0.535612    -6.276013    7.128987    41.326225    16.813675    30.797821    -27.940514    -22.137869    70.848969    -1.732407    2.027256    -44.699112    -47.448212    38.866440    34.355026    35.000000    0.000002    0.000010    -0.000000    0.000000    -0.000000    0.000004    10.000002    -0.000006    -0.000000    0.000000    -0.000000    -0.000000    0.000000    -0.000000    -0.000000    0.000000    -0.000000    -0.000000    0.000000    -0.000000    -0.000000    0.000000    -0.000000    -0.000000    0.000000    -0.000000    -0.000000    0.000000    -0.000000    -0.000000    0.000000    -0.000000    -0.000002    -9.999990    -0.000011    -0.000000    0.000000    -0.000000    -0.000000    0.000000    -0.000000    7.747543    -6.859784    -4.929626    -0.000001    45.602345    -0.000000    -18.040224    -33.318584    16.695004    -0.000000    -0.600369    -0.000001    -17.546627    -27.217676    -1.712884    -0.000002    60.940456    -0.000001    10.932163    -27.961321    -5.535852    -0.000000    -1.281557    -0.000000    
-16.665903    86.430290    218.279785    6.338133    -5.525515    -16.443626    0.435203    6.377515    1.138722    2.176006    6.373135    0.945409    4.506895    5.915517    1.974306    4.506894    5.915519    1.974301    -6.479041    -0.848607    0.328943    -51.386341    30.483313    -22.783560    -14.028193    6.186674    -138.773468    15.290298    5.722665    20.533178    47.448215    38.866432    -34.355038    -35.000000    -0.000002    -0.000001    -0.000000    0.000000    -0.000000    0.000000    10.000004    -0.000002    -0.000000    0.000000    -0.000000    -0.000000    0.000000    -0.000000    -0.000000    0.000000    -0.000000    -0.000000    0.000000    -0.000000    -0.000000    0.000000    -0.000000    -0.000000    0.000000    -0.000000    -0.000000    0.000000    -0.000000    -0.000000    0.000000    -0.000000    -0.000000    -10.000001    -0.000002    -0.000000    0.000000    -0.000000    -0.000000    0.000000    -0.000000    -0.616981    -6.270730    7.213248    40.706802    16.114105    31.637491    -27.595425    -21.993189    70.577301    -1.914842    2.200064    -44.684509    -47.448208    38.866428    34.355030    34.999992    -0.000002    -0.000003    -0.000000    0.000000    -0.000000    0.000001    9.999997    0.000002    -0.000000    0.000000    -0.000000    -0.000000    0.000000    -0.000000    -0.000000    0.000000    -0.000000    -0.000000    0.000000    -0.000000    -0.000000    0.000000    -0.000000    -0.000000    0.000000    -0.000000    -0.000000    0.000000    -0.000000    -0.000000    0.000000    -0.000000    0.000001    -10.000000    -0.000003    -0.000000    0.000000    -0.000000    -0.000000    0.000000    -0.000000    7.763968    -7.001757    -4.943890    -0.000000    45.336491    -0.000000    -18.068468    -33.071495    16.571106    0.000000    -0.585576    -0.000000    -17.606419    -27.204260    -1.826384    -0.000002    60.763947    0.000002    10.930183    -27.898048    -5.700971    0.000000    -1.284118    0.000002    
